<svg height="481pt" viewBox="-3 0 481 481.12913" width="481pt" xmlns="http://www.w3.org/2000/svg"><path d="m299.472656 407.566406c-.21875-11.160156-3.421875-22.0625-9.28125-31.566406h-109.398437c-4.730469 7.652344-7.734375 16.242188-8.800781 25.175781-.363282 2.625-.554688 5.269531-.566407 7.921875.0625 34.015625 26.671875 62.0625 60.640625 63.917969 1.070313.054687 2.261719.113281 3.390625.113281 1.128907 0 2.320313-.058594 3.457031-.167968 125.460938-1.667969 226.769532-102.960938 228.453126-228.425782.113281-1.136718.167968-2.320312.167968-3.457031 0-1.132813-.054687-2.308594-.109375-3.390625-1.863281-33.964844-29.914062-60.570312-63.929687-60.640625-2.648438.015625-5.289063.203125-7.910156.570313-6.78125.792968-13.382813 2.726562-19.519532 5.710937v115.511719c8.09375 3.898437 16.929688 6.019531 25.910156 6.222656-16.984374 47.867188-54.640624 85.523438-102.503906 102.503906zm0 0" fill="#b5aeff"/><path d="m168.066406 328h160v-160c0-88.367188-71.636718-160-160-160-88.367187 0-160 71.632812-160 160s71.632813 160 160 160zm0-240c44.179688 0 80 35.816406 80 80s-35.820312 80-80 80c-44.183594 0-80-35.816406-80-80 .046875-44.164062 35.835938-79.953125 80-80zm0 0" fill="#b5aeff"/><g fill="#7B6FFF"><path d="m235.496094 481.128906c-1.261719 0-2.597656-.066406-3.808594-.128906-38.199219-2.101562-68.128906-33.636719-68.230469-71.894531.015625-3.070313.234375-6.132813.664063-9.167969 1.199218-9.996094 4.570312-19.605469 9.871094-28.160156 1.460937-2.351563 4.035156-3.78125 6.800781-3.777344h109.398437c2.773438 0 5.34375 1.4375 6.800782 3.792969 4.636718 7.507812 7.816406 15.820312 9.375 24.503906 37.976562-16.144531 68.210937-46.382813 84.34375-84.359375-6.28125-1.136719-12.378907-3.117188-18.125-5.890625-2.765626-1.332031-4.519532-4.128906-4.519532-7.199219v-115.519531c-.007812-3.058594 1.730469-5.855469 4.476563-7.199219 6.941406-3.375 14.402343-5.566406 22.066406-6.472656 2.886719-.398438 5.796875-.605469 8.710937-.625 38.3125.027344 69.941407 29.949219 72.089844 68.199219v.042969c.0625 1.199218.117188 2.527343.117188 3.789062 0 1.394531-.070313 2.839844-.207032 4.226562-1.332031 129.835938-106.433593 234.671876-236.273437 235.671876-1.179687.121093-2.363281.175781-3.550781.167968zm-50.039063-97.128906c-3.863281 7.863281-5.914062 16.496094-6 25.257812.160157 29.703126 23.425781 54.144532 53.085938 55.765626 1.867187.136718 3.738281.136718 5.601562 0 121.625-.75 220.128907-98.980469 221.222657-220.597657.128906-1.539062.167968-2.464843.167968-3.347656 0-.878906-.046875-2.03125-.101562-2.972656-1.65625-29.710938-26.191406-52.976563-55.945313-53.058594-2.234375.015625-4.464843.171875-6.679687.472656-4.355469.507813-8.632813 1.535157-12.742188 3.066407v105.015624c5.792969 2.175782 11.914063 3.355469 18.101563 3.496094 2.5625.0625 4.9375 1.347656 6.390625 3.457032 1.453125 2.113281 1.808594 4.789062.953125 7.207031-17.664063 50.210937-57.152344 89.695312-107.367188 107.351562-2.425781.859375-5.113281.5-7.230469-.964843-2.113281-1.464844-3.394531-3.855469-3.441406-6.429688-.164062-8.253906-2.195312-16.363281-5.945312-23.71875zm0 0"/><path d="m328.066406 336h-160c-92.785156 0-167.9999998-75.214844-167.9999998-168s75.2148438-168 167.9999998-168c92.78125 0 168 75.214844 168 168v160c0 4.417969-3.582031 8-8 8zm-160-320c-83.949218 0-152 68.050781-152 152s68.050782 152 152 152h152v-152c-.09375-83.910156-68.09375-151.90625-152-152zm0 0"/><path d="m168.066406 256c-48.601562 0-88-39.398438-88-88s39.398438-88 88-88c48.597656 0 88 39.398438 88 88-.058594 48.578125-39.425781 87.941406-88 88zm0-160c-39.765625 0-72 32.234375-72 72s32.234375 72 72 72c39.761719 0 72-32.234375 72-72-.046875-39.746094-32.253906-71.957031-72-72zm0 0"/><path d="m216.066406 160h-40v-40c0-4.417969-3.582031-8-8-8-4.421875 0-8 3.582031-8 8v40h-40c-4.421875 0-8 3.582031-8 8s3.578125 8 8 8h40v40c0 4.417969 3.578125 8 8 8 4.417969 0 8-3.582031 8-8v-40h40c4.417969 0 8-3.582031 8-8s-3.582031-8-8-8zm0 0"/></g></svg>